<?xml version="1.0" standalone="no"?>
<!DOCTYPE svg PUBLIC "-//W3C//DTD SVG 20010904//EN"
 "http://www.w3.org/TR/2001/REC-SVG-20010904/DTD/svg10.dtd">
<svg version="1.0" xmlns="http://www.w3.org/2000/svg"
 width="400.000000pt" height="400.000000pt" viewBox="0 0 400.000000 400.000000"
 preserveAspectRatio="xMidYMid meet">
<metadata>
Created by potrace 1.11, written by Peter Selinger 2001-2013
</metadata>
<g transform="translate(0.000000,400.000000) scale(0.100000,-0.100000)"
fill="#000000" stroke="none">
<path d="M1524 3921 c-366 -93 -696 -286 -962 -565 l-64 -66 29 -11 c43 -16
239 -69 331 -88 83 -18 83 -18 96 3 117 195 225 335 371 482 66 66 156 149
200 184 44 35 84 67 90 72 13 12 -10 9 -91 -11z"/>
<path d="M2467 3871 c116 -90 280 -253 375 -371 70 -88 218 -305 218 -321 0
-11 130 19 403 93 20 6 37 16 37 22 0 15 -180 191 -265 258 -153 121 -356 235
-540 303 -96 36 -272 85 -302 85 -8 0 25 -31 74 -69z"/>
<path d="M1810 3808 c-225 -151 -428 -356 -583 -587 -31 -47 -55 -86 -54 -87
4 -4 59 -13 117 -19 30 -3 64 -8 75 -10 11 -2 47 -7 80 -10 33 -3 80 -8 105
-10 25 -3 113 -7 195 -11 l150 -6 0 390 c0 215 -2 393 -5 395 -3 3 -39 -18
-80 -45z"/>
<path d="M2117 3852 c-3 -4 -5 -182 -5 -396 l0 -389 136 7 c167 7 280 16 405
31 20 3 56 7 80 10 67 9 97 16 97 24 0 13 -115 177 -178 253 -120 147 -286
299 -449 411 -45 31 -84 54 -86 49z"/>
<path d="M352 3097 c-6 -7 -30 -46 -54 -87 -147 -249 -243 -549 -265 -823 l-6
-77 308 2 308 3 3 35 c4 63 15 167 18 186 4 25 17 112 17 119 0 2 5 19 10 37
5 18 12 47 15 63 10 59 54 202 89 295 20 52 37 101 38 109 1 10 -46 26 -163
57 -91 23 -197 54 -237 68 -54 18 -74 21 -81 13z"/>
<path d="M3560 3080 c-47 -16 -150 -45 -230 -66 -80 -20 -149 -41 -153 -45 -5
-4 7 -47 26 -96 20 -49 47 -130 62 -180 25 -87 30 -109 41 -163 3 -14 9 -41
14 -60 12 -52 39 -266 39 -327 l1 -33 311 0 311 0 -6 79 c-4 44 -9 88 -11 99
-2 11 -6 37 -9 58 -22 135 -68 290 -132 440 -41 97 -143 287 -168 310 -8 9
-33 5 -96 -16z"/>
<path d="M1045 2893 c-37 -78 -104 -282 -128 -393 -32 -144 -35 -165 -52 -337
l-5 -53 518 0 517 0 0 364 c0 201 -2 367 -5 369 -3 3 -68 8 -145 12 -77 4
-156 8 -175 10 -19 2 -66 6 -105 10 -119 10 -333 39 -381 51 -17 4 -25 -2 -39
-33z"/>
<path d="M2919 2926 c-2 -2 -24 -7 -49 -10 -25 -3 -54 -8 -65 -10 -12 -2 -48
-7 -80 -11 -33 -4 -67 -9 -76 -10 -8 -2 -55 -6 -105 -10 -49 -4 -97 -9 -106
-11 -9 -1 -84 -6 -165 -9 -81 -4 -151 -9 -155 -11 -3 -2 -6 -168 -6 -369 l1
-365 513 0 c480 0 513 1 516 18 3 15 -12 153 -26 247 -4 25 -27 136 -41 195
-9 40 -76 234 -101 293 -26 59 -41 76 -55 63z"/>
<path d="M51 1892 c-23 -4 -24 -5 -18 -80 4 -43 9 -88 11 -102 3 -14 10 -53
16 -87 15 -88 64 -257 100 -349 54 -137 182 -374 201 -374 5 0 61 16 124 35
102 31 299 84 332 89 25 4 25 17 -2 83 -45 110 -107 315 -120 393 -3 19 -8 42
-10 50 -2 8 -7 38 -11 65 -3 28 -7 52 -9 55 -2 3 -6 41 -9 85 -4 44 -9 94 -11
110 l-5 30 -282 0 c-156 0 -294 -2 -307 -3z"/>
<path d="M877 1892 c-12 -3 -15 -12 -12 -40 2 -20 7 -66 10 -102 9 -103 52
-300 94 -427 45 -137 97 -257 108 -250 5 3 27 8 49 11 22 4 49 8 59 10 11 2
45 7 75 11 30 3 66 8 80 11 14 2 52 6 85 8 33 3 94 9 135 12 87 8 132 11 250
14 l85 3 0 362 c0 200 -3 367 -7 370 -7 7 -978 13 -1011 7z"/>
<path d="M2159 1890 l-47 -5 0 -366 0 -367 86 -1 c48 -1 101 -3 117 -5 17 -2
79 -7 139 -11 60 -4 116 -8 125 -10 9 -1 43 -6 76 -10 33 -4 69 -8 80 -10 11
-1 45 -6 75 -9 30 -4 72 -11 93 -16 42 -9 35 -20 97 135 47 118 102 316 116
421 3 27 8 58 10 69 2 11 7 54 10 95 4 41 8 78 11 83 2 4 -2 7 -9 8 -90 3
-945 3 -979 -1z"/>
<path d="M3383 1892 c-18 -3 -23 -10 -24 -35 0 -18 -2 -39 -3 -47 -2 -8 -6
-50 -10 -92 -4 -43 -8 -83 -11 -90 -2 -7 -6 -26 -9 -43 -21 -144 -86 -367
-150 -516 l-15 -36 37 -11 c20 -6 51 -14 68 -16 42 -8 269 -73 317 -91 63 -25
70 -21 120 64 152 256 262 594 269 830 l3 83 -285 1 c-157 1 -295 1 -307 -1z"/>
<path d="M1869 936 c-2 -2 -71 -6 -154 -10 -82 -3 -166 -8 -185 -11 -19 -2
-83 -9 -141 -15 -58 -6 -116 -13 -130 -15 -13 -3 -36 -6 -51 -7 -16 -1 -28 -6
-28 -11 0 -13 92 -145 161 -233 95 -119 250 -269 379 -365 149 -110 167 -122
172 -106 4 10 3 749 -1 770 -1 7 -15 10 -22 3z"/>
<path d="M2115 930 c-1 -3 -3 -180 -3 -393 l0 -388 36 23 c216 131 456 364
621 602 33 49 61 92 61 95 0 4 -8 7 -17 7 -10 1 -54 6 -98 12 -44 6 -107 14
-140 17 -33 4 -76 8 -95 11 -35 4 -224 14 -313 17 -27 1 -50 0 -52 -3z"/>
<path d="M910 823 c-38 -6 -287 -70 -354 -91 l-59 -18 78 -82 c189 -199 455
-376 715 -475 107 -41 243 -81 310 -92 l45 -7 -50 38 c-159 120 -346 304 -455
446 -38 51 -75 98 -80 105 -6 7 -10 15 -10 19 0 4 -7 16 -17 26 -17 19 -25 31
-61 97 -12 22 -26 40 -30 40 -4 -1 -18 -4 -32 -6z"/>
<path d="M3044 803 c-162 -266 -349 -482 -573 -659 -55 -43 -96 -80 -91 -82
13 -5 236 55 315 85 188 70 417 201 565 323 129 106 251 232 238 246 -6 5
-245 73 -281 79 -18 3 -57 12 -88 20 -72 19 -66 20 -85 -12z"/>
</g>
</svg>
